<svg xmlns="http://www.w3.org/2000/svg" width="24" height="24" viewBox="0 0 24 24" role="img" aria-label="donor icon">
  <g id="donor" fill="none">
    <path d="M21.268 13.72c-.94-.7-2.223-.572-2.985.297-.47.537-1.063.993-1.736 1.367-.004-.089-.002-.176-.016-.267-.178-1.085-1.006-1.864-2.16-1.867H9.053c-.52.034-.945-.434-1.472-1.012C.944 5.567 9.018.398 12.016 7.558 14.939.4 23.06 5.587 16.49 12.171l1.076 1.044c3.774-3.885 3.323-7.34 1.788-9.121-1.884-2.226-5.625-1.782-7.347.52-1.739-2.294-5.469-2.765-7.356-.517-1.601 1.858-1.957 5.247 1.84 9.17.626.675 1.325 1.517 2.581 1.482h5.301c.346-.002.61.225.666.579l.017.078c.05.582-.487.771-.821.832-.684.15-1.4.238-2.14.238v1.5c.828 0 1.635-.096 2.41-.263v.002c.022-.005.04-.013.062-.017 1.96-.435 3.685-1.37 4.844-2.695.254-.288.639-.32.961-.08.476.337.52 1.182.122 1.6C16.13 21.673 5.987 21.03 2.7 15.165l-1.29.763c2.044 3.462 6.14 5.613 10.686 5.613 3.763 0 7.232-1.465 9.516-4.019.984-1.044.833-2.97-.344-3.802Z" fill="currentColor"></path>
  </g>
</svg>
