<?xml version="1.0" encoding="UTF-8"?> <svg xmlns="http://www.w3.org/2000/svg" id="Layer_1_copy" width="12.3611in" height="15in" viewBox="0 0 890.0018 1080"><defs><style>.cls-1{stroke:#000;stroke-miterlimit:10;stroke-width:5px;}.cls-1,.cls-2{fill:#fff;}</style></defs><rect class="cls-2" x="296.2509" y="396.249" width="298.1442" height="292.0017"></rect><rect class="cls-2" x="296.7865" y="-.0058" width="590.4" height="292.0017" rx="5.832" ry="5.832"></rect><rect class="cls-2" x="-.4135" y="787.9986" width="590.4" height="292.0017" rx="5.832" ry="5.832"></rect><path class="cls-2" d="M1.0536,396.249H296.2536v292.0017h-3.1986C131.895,688.2507,1.0536,557.4093,1.0536,396.2493v-.0003h0Z"></path><path class="cls-2" d="M1.0549,309.0017H290.4203c3.2188,0,5.832,2.6132,5.832,5.832v83.6941H1.0549v-89.5261h0Z"></path><path class="cls-2" d="M591.4509,685.2449h295.1973v84.4209c0,3.2188-2.6132,5.832-5.832,5.832h-283.5333c-3.2188,0-5.832-2.6132-5.832-5.832v-84.4209h0Z"></path><path class="cls-2" d="M591.4496,396.249h3.1986c161.16,0,292.0014,130.8414,292.0014,292.0014v.0003h-295.2V396.249h0Z"></path><path class="cls-2" d="M298.5202,460.38h-.0011c-.6048-34.6499-29.4496-62.5051-64.0996-61.9002h0c34.65-.6049,62.5051-29.4498,61.9003-64.0997h.0011c.6048,34.6499,29.4496,62.5051,64.0996,61.9002h0c-34.65,.6049-62.5051,29.4498-61.9003,64.0997Z"></path><path class="cls-2" d="M591.5602,750.18h-.0011c-.6048-34.6499-29.4496-62.5051-64.0996-61.9002h0c34.65-.6049,62.5051-29.4498,61.9003-64.0997h.0011c.6048,34.6499,29.4496,62.5051,64.0996,61.9002h0c-34.65,.6049-62.5051,29.4498-61.9003,64.0997Z"></path><circle class="cls-1" cx="817.5023" cy="1012.5" r="58.5002"></circle><path class="cls-2" d="M798.2821,973.8086h26.9424c5.7451,0,10.4326,1.5625,14.0635,4.6875,4.3682,3.5488,6.6475,8.6104,6.8359,15.1855-.126,9.668-4.5645,16.2441-13.3154,19.7266l15.96,31.5918h-12.4033l-14.2715-30.4248h-13.3721v30.4248h-10.4395v-71.1914Zm10.4395,31.2061h15.8369c3.9199-.0654,6.8594-1.2402,8.8193-3.5254,1.9277-2.1211,2.8926-4.7334,2.8926-7.834-.0635-3.7197-1.2168-6.4131-3.4619-8.0771-1.7695-1.4688-4.3301-2.2041-7.6807-2.2041h-16.4062v21.6406Z"></path></svg> 