<?xml version="1.0" encoding="UTF-8"?> <svg xmlns="http://www.w3.org/2000/svg" id="a" width="313.97mm" height="381mm" viewBox="0 0 890 1080"><rect x="296.25" y="396.25" width="298.14" height="292" stroke-width="0"></rect><rect x="296.79" y="0" width="590.4" height="292" rx="5.83" ry="5.83" stroke-width="0"></rect><rect x="-.41" y="788" width="590.4" height="292" rx="5.83" ry="5.83" stroke-width="0"></rect><path d="M1.05,396.25h295.2v292h-3.2c-161.16,0-292-130.84-292-292h0Z" stroke-width="0"></path><path d="M1.05,309h289.37c3.22,0,5.83,2.61,5.83,5.83v83.69H1.05v-89.53h0Z" stroke-width="0"></path><path d="M591.45,685.25h295.2v84.42c0,3.22-2.61,5.83-5.83,5.83h-283.53c-3.22,0-5.83-2.61-5.83-5.83v-84.42h0Z" stroke-width="0"></path><path d="M591.45,396.25h3.2c161.16,0,292,130.84,292,292h0s-295.2,0-295.2,0v-292h0Z" stroke-width="0"></path><path d="M298.52,460.38h0c-.6-34.65-29.45-62.51-64.1-61.9h0c34.65-.6,62.51-29.45,61.9-64.1h0c.6,34.65,29.45,62.51,64.1,61.9h0c-34.65.6-62.51,29.45-61.9,64.1Z" stroke-width="0"></path><path d="M591.56,750.18h0c-.6-34.65-29.45-62.51-64.1-61.9h0c34.65-.6,62.51-29.45,61.9-64.1h0c.6,34.65,29.45,62.51,64.1,61.9h0c-34.65.6-62.51,29.45-61.9,64.1h0Z" stroke-width="0"></path><circle cx="817.5" cy="1012.5" r="58.5" fill="#fff" stroke="#000" stroke-miterlimit="10" stroke-width="5"></circle><path d="M798.28,973.81h26.94c5.75,0,10.43,1.56,14.06,4.69,4.37,3.55,6.65,8.61,6.84,15.19-.13,9.67-4.56,16.24-13.32,19.73l15.96,31.59h-12.4l-14.27-30.42h-13.37v30.42h-10.44v-71.19h0ZM808.72,1005.02h15.84c3.92-.07,6.86-1.24,8.82-3.53,1.93-2.12,2.89-4.73,2.89-7.83-.06-3.72-1.22-6.41-3.46-8.08-1.77-1.47-4.33-2.2-7.68-2.2h-16.41v21.64h0Z" stroke-width="0"></path></svg> 